<svg width="362" height="73" viewBox="0 0 362 73" fill="none" xmlns="http://www.w3.org/2000/svg">
<path d="M16.448 24L14.656 18.304H6.72L4.96 24H0.672L8.16 1.664H13.408L20.832 24H16.448ZM10.752 5.504H10.592L7.744 14.688H13.632L10.752 5.504ZM23.868 24V7.296H27.964V10.08H28.124C28.444 9.20533 28.956 8.45867 29.66 7.84C30.364 7.22133 31.3453 6.912 32.604 6.912C33.756 6.912 34.748 7.18933 35.58 7.744C36.412 8.29867 37.0307 9.14133 37.436 10.272H37.5C37.7987 9.33333 38.3853 8.544 39.26 7.904C40.156 7.24267 41.276 6.912 42.62 6.912C44.2627 6.912 45.5213 7.47733 46.396 8.608C47.292 9.73867 47.74 11.3493 47.74 13.44V24H43.644V13.856C43.644 11.4667 42.748 10.272 40.956 10.272C40.5507 10.272 40.156 10.336 39.772 10.464C39.4093 10.5707 39.0787 10.7413 38.78 10.976C38.5027 11.1893 38.2787 11.4667 38.108 11.808C37.9373 12.128 37.852 12.512 37.852 12.96V24H33.756V13.856C33.756 11.4667 32.86 10.272 31.068 10.272C30.684 10.272 30.3 10.336 29.916 10.464C29.5533 10.5707 29.2227 10.7413 28.924 10.976C28.6467 11.1893 28.412 11.4667 28.22 11.808C28.0493 12.128 27.964 12.512 27.964 12.96V24H23.868ZM58.8983 24.384C57.7036 24.384 56.6263 24.1813 55.6663 23.776C54.7276 23.3707 53.9169 22.784 53.2343 22.016C52.5729 21.248 52.0609 20.3307 51.6983 19.264C51.3356 18.176 51.1543 16.96 51.1543 15.616C51.1543 14.272 51.3356 13.0667 51.6983 12C52.0609 10.9333 52.5729 10.0267 53.2343 9.28C53.9169 8.512 54.7276 7.92533 55.6663 7.52C56.6263 7.11467 57.7036 6.912 58.8983 6.912C60.0929 6.912 61.1703 7.11467 62.1303 7.52C63.0903 7.92533 63.9009 8.512 64.5623 9.28C65.2449 10.0267 65.7676 10.9333 66.1303 12C66.4929 13.0667 66.6743 14.272 66.6743 15.616C66.6743 16.96 66.4929 18.176 66.1303 19.264C65.7676 20.3307 65.2449 21.248 64.5623 22.016C63.9009 22.784 63.0903 23.3707 62.1303 23.776C61.1703 24.1813 60.0929 24.384 58.8983 24.384ZM58.8983 21.088C59.9863 21.088 60.8396 20.7573 61.4583 20.096C62.0769 19.4347 62.3863 18.464 62.3863 17.184V14.08C62.3863 12.8213 62.0769 11.8613 61.4583 11.2C60.8396 10.5387 59.9863 10.208 58.8983 10.208C57.8316 10.208 56.9889 10.5387 56.3703 11.2C55.7516 11.8613 55.4423 12.8213 55.4423 14.08V17.184C55.4423 18.464 55.7516 19.4347 56.3703 20.096C56.9889 20.7573 57.8316 21.088 58.8983 21.088ZM70.3055 24V7.296H74.4015V10.752H74.5615C74.6682 10.304 74.8282 9.87733 75.0415 9.472C75.2762 9.04533 75.5748 8.672 75.9375 8.352C76.3002 8.032 76.7268 7.776 77.2175 7.584C77.7295 7.392 78.3162 7.296 78.9775 7.296H79.8735V11.168H78.5935C77.2068 11.168 76.1615 11.3707 75.4575 11.776C74.7535 12.1813 74.4015 12.8427 74.4015 13.76V24H70.3055ZM122.429 24.384C121.191 24.384 120.093 24.1813 119.133 23.776C118.173 23.3707 117.362 22.784 116.701 22.016C116.061 21.248 115.57 20.3307 115.229 19.264C114.887 18.176 114.717 16.96 114.717 15.616C114.717 14.272 114.887 13.0667 115.229 12C115.57 10.9333 116.061 10.0267 116.701 9.28C117.362 8.512 118.173 7.92533 119.133 7.52C120.093 7.11467 121.191 6.912 122.429 6.912C124.114 6.912 125.501 7.28533 126.589 8.032C127.698 8.77867 128.498 9.81333 128.989 11.136L125.629 12.64C125.437 11.936 125.074 11.36 124.541 10.912C124.029 10.4427 123.325 10.208 122.429 10.208C121.277 10.208 120.413 10.5707 119.837 11.296C119.282 12.0213 119.005 12.9707 119.005 14.144V17.184C119.005 18.3573 119.282 19.3067 119.837 20.032C120.413 20.736 121.277 21.088 122.429 21.088C123.41 21.088 124.167 20.8427 124.701 20.352C125.234 19.84 125.65 19.2107 125.949 18.464L129.085 19.968C128.53 21.44 127.687 22.5493 126.557 23.296C125.426 24.0213 124.05 24.384 122.429 24.384ZM144.531 24C143.635 24 142.92 23.744 142.387 23.232C141.875 22.6987 141.555 21.9947 141.427 21.12H141.235C140.958 22.208 140.392 23.0293 139.539 23.584C138.686 24.1173 137.63 24.384 136.371 24.384C134.664 24.384 133.352 23.936 132.435 23.04C131.518 22.144 131.059 20.9493 131.059 19.456C131.059 17.728 131.678 16.448 132.915 15.616C134.152 14.7627 135.912 14.336 138.195 14.336H141.043V13.12C141.043 12.1813 140.798 11.456 140.307 10.944C139.816 10.432 139.027 10.176 137.939 10.176C136.979 10.176 136.2 10.3893 135.603 10.816C135.027 11.2213 134.536 11.712 134.131 12.288L131.699 10.112C132.318 9.152 133.139 8.384 134.163 7.808C135.187 7.21067 136.542 6.912 138.227 6.912C140.488 6.912 142.206 7.424 143.379 8.448C144.552 9.472 145.139 10.944 145.139 12.864V20.736H146.803V24H144.531ZM137.747 21.408C138.664 21.408 139.443 21.2053 140.083 20.8C140.723 20.3947 141.043 19.7973 141.043 19.008V16.8H138.419C136.286 16.8 135.219 17.4827 135.219 18.848V19.392C135.219 20.0747 135.432 20.5867 135.859 20.928C136.307 21.248 136.936 21.408 137.747 21.408ZM150.118 24V7.296H154.214V10.752H154.374C154.481 10.304 154.641 9.87733 154.854 9.472C155.089 9.04533 155.387 8.672 155.75 8.352C156.113 8.032 156.539 7.776 157.03 7.584C157.542 7.392 158.129 7.296 158.79 7.296H159.686V11.168H158.406C157.019 11.168 155.974 11.3707 155.27 11.776C154.566 12.1813 154.214 12.8427 154.214 13.76V24H150.118ZM164.729 4.864C163.875 4.864 163.257 4.672 162.873 4.288C162.51 3.904 162.329 3.41333 162.329 2.816V2.176C162.329 1.57867 162.51 1.088 162.873 0.703999C163.257 0.319998 163.875 0.127998 164.729 0.127998C165.561 0.127998 166.169 0.319998 166.553 0.703999C166.937 1.088 167.129 1.57867 167.129 2.176V2.816C167.129 3.41333 166.937 3.904 166.553 4.288C166.169 4.672 165.561 4.864 164.729 4.864ZM162.681 7.296H166.777V24H162.681V7.296ZM171.524 24V7.296H175.62V10.08H175.78C176.122 9.184 176.655 8.43733 177.38 7.84C178.127 7.22133 179.151 6.912 180.452 6.912C182.18 6.912 183.503 7.47733 184.42 8.608C185.338 9.73867 185.796 11.3493 185.796 13.44V24H181.7V13.856C181.7 12.6613 181.487 11.7653 181.06 11.168C180.634 10.5707 179.93 10.272 178.948 10.272C178.522 10.272 178.106 10.336 177.7 10.464C177.316 10.5707 176.964 10.7413 176.644 10.976C176.346 11.1893 176.1 11.4667 175.908 11.808C175.716 12.128 175.62 12.512 175.62 12.96V24H171.524ZM190.337 0.32H194.433V10.08H194.593C194.934 9.184 195.467 8.43733 196.193 7.84C196.939 7.22133 197.963 6.912 199.265 6.912C200.993 6.912 202.315 7.47733 203.233 8.608C204.15 9.73867 204.609 11.3493 204.609 13.44V24H200.513V13.856C200.513 12.6613 200.299 11.7653 199.873 11.168C199.446 10.5707 198.742 10.272 197.761 10.272C197.334 10.272 196.918 10.336 196.513 10.464C196.129 10.5707 195.777 10.7413 195.457 10.976C195.158 11.1893 194.913 11.4667 194.721 11.808C194.529 12.128 194.433 12.512 194.433 12.96V24H190.337V0.32ZM215.773 24.384C214.579 24.384 213.501 24.1813 212.541 23.776C211.603 23.3707 210.792 22.784 210.109 22.016C209.448 21.248 208.936 20.3307 208.573 19.264C208.211 18.176 208.029 16.96 208.029 15.616C208.029 14.272 208.211 13.0667 208.573 12C208.936 10.9333 209.448 10.0267 210.109 9.28C210.792 8.512 211.603 7.92533 212.541 7.52C213.501 7.11467 214.579 6.912 215.773 6.912C216.968 6.912 218.045 7.11467 219.005 7.52C219.965 7.92533 220.776 8.512 221.437 9.28C222.12 10.0267 222.643 10.9333 223.005 12C223.368 13.0667 223.549 14.272 223.549 15.616C223.549 16.96 223.368 18.176 223.005 19.264C222.643 20.3307 222.12 21.248 221.437 22.016C220.776 22.784 219.965 23.3707 219.005 23.776C218.045 24.1813 216.968 24.384 215.773 24.384ZM215.773 21.088C216.861 21.088 217.715 20.7573 218.333 20.096C218.952 19.4347 219.261 18.464 219.261 17.184V14.08C219.261 12.8213 218.952 11.8613 218.333 11.2C217.715 10.5387 216.861 10.208 215.773 10.208C214.707 10.208 213.864 10.5387 213.245 11.2C212.627 11.8613 212.317 12.8213 212.317 14.08V17.184C212.317 18.464 212.627 19.4347 213.245 20.096C213.864 20.7573 214.707 21.088 215.773 21.088Z" fill="#364FC7"/>
<path d="M97.1825 24.384C95.9452 24.384 94.8358 24.1813 93.8545 23.776C92.8945 23.3493 92.0732 22.7627 91.3905 22.016C90.7292 21.248 90.2172 20.3307 89.8545 19.264C89.4918 18.176 89.3105 16.96 89.3105 15.616C89.3105 14.2933 89.4812 13.0987 89.8225 12.032C90.1852 10.9653 90.6972 10.0587 91.3585 9.312C92.0198 8.544 92.8305 7.95733 93.7905 7.552C94.7505 7.12533 95.8385 6.912 97.0545 6.912C98.3558 6.912 99.4865 7.136 100.447 7.584C101.407 8.032 102.196 8.64 102.815 9.408C103.433 10.176 103.892 11.072 104.191 12.096C104.511 13.0987 104.671 14.176 104.671 15.328V16.672H93.5665V17.088C93.5665 18.304 93.9078 19.2853 94.5905 20.032C95.2732 20.7573 96.2865 21.12 97.6305 21.12C98.6545 21.12 99.4865 20.9067 100.127 20.48C100.788 20.0533 101.375 19.5093 101.887 18.848L104.095 21.312C103.412 22.272 102.473 23.0293 101.279 23.584C100.105 24.1173 98.7398 24.384 97.1825 24.384ZM97.1185 9.984C96.0305 9.984 95.1665 10.3467 94.5265 11.072C93.8865 11.7973 93.5665 12.736 93.5665 13.888V14.144H100.415V13.856C100.415 12.704 100.127 11.776 99.5505 11.072C98.9958 10.3467 98.1852 9.984 97.1185 9.984ZM234.743 7.296H238.839V10.048H238.967C239.266 9.088 239.831 8.33067 240.663 7.776C241.495 7.2 242.466 6.912 243.575 6.912C245.708 6.912 247.33 7.66933 248.439 9.184C249.57 10.6773 250.135 12.8213 250.135 15.616C250.135 18.432 249.57 20.5973 248.439 22.112C247.33 23.6267 245.708 24.384 243.575 24.384C242.466 24.384 241.495 24.096 240.663 23.52C239.852 22.944 239.287 22.176 238.967 21.216H238.839V30.4H234.743V7.296ZM242.263 20.992C243.33 20.992 244.194 20.64 244.855 19.936C245.516 19.232 245.847 18.2827 245.847 17.088V14.208C245.847 13.0133 245.516 12.064 244.855 11.36C244.194 10.6347 243.33 10.272 242.263 10.272C241.282 10.272 240.46 10.5173 239.799 11.008C239.159 11.4987 238.839 12.1493 238.839 12.96V18.272C238.839 19.1467 239.159 19.8187 239.799 20.288C240.46 20.7573 241.282 20.992 242.263 20.992ZM260.555 24.384C259.36 24.384 258.283 24.1813 257.323 23.776C256.384 23.3707 255.573 22.784 254.891 22.016C254.229 21.248 253.717 20.3307 253.355 19.264C252.992 18.176 252.811 16.96 252.811 15.616C252.811 14.272 252.992 13.0667 253.355 12C253.717 10.9333 254.229 10.0267 254.891 9.28C255.573 8.512 256.384 7.92533 257.323 7.52C258.283 7.11467 259.36 6.912 260.555 6.912C261.749 6.912 262.827 7.11467 263.787 7.52C264.747 7.92533 265.557 8.512 266.219 9.28C266.901 10.0267 267.424 10.9333 267.787 12C268.149 13.0667 268.331 14.272 268.331 15.616C268.331 16.96 268.149 18.176 267.787 19.264C267.424 20.3307 266.901 21.248 266.219 22.016C265.557 22.784 264.747 23.3707 263.787 23.776C262.827 24.1813 261.749 24.384 260.555 24.384ZM260.555 21.088C261.643 21.088 262.496 20.7573 263.115 20.096C263.733 19.4347 264.043 18.464 264.043 17.184V14.08C264.043 12.8213 263.733 11.8613 263.115 11.2C262.496 10.5387 261.643 10.208 260.555 10.208C259.488 10.208 258.645 10.5387 258.027 11.2C257.408 11.8613 257.099 12.8213 257.099 14.08V17.184C257.099 18.464 257.408 19.4347 258.027 20.096C258.645 20.7573 259.488 21.088 260.555 21.088ZM271.962 24V7.296H276.058V10.752H276.218C276.324 10.304 276.484 9.87733 276.698 9.472C276.932 9.04533 277.231 8.672 277.594 8.352C277.956 8.032 278.383 7.776 278.874 7.584C279.386 7.392 279.972 7.296 280.634 7.296H281.53V11.168H280.25C278.863 11.168 277.818 11.3707 277.114 11.776C276.41 12.1813 276.058 12.8427 276.058 13.76V24H271.962ZM292.087 24V7.296H296.183V10.08H296.343C296.663 9.20533 297.175 8.45867 297.879 7.84C298.583 7.22133 299.564 6.912 300.823 6.912C301.975 6.912 302.967 7.18933 303.799 7.744C304.631 8.29867 305.249 9.14133 305.655 10.272H305.719C306.017 9.33333 306.604 8.544 307.479 7.904C308.375 7.24267 309.495 6.912 310.839 6.912C312.481 6.912 313.74 7.47733 314.615 8.608C315.511 9.73867 315.959 11.3493 315.959 13.44V24H311.863V13.856C311.863 11.4667 310.967 10.272 309.175 10.272C308.769 10.272 308.375 10.336 307.991 10.464C307.628 10.5707 307.297 10.7413 306.999 10.976C306.721 11.1893 306.497 11.4667 306.327 11.808C306.156 12.128 306.071 12.512 306.071 12.96V24H301.975V13.856C301.975 11.4667 301.079 10.272 299.287 10.272C298.903 10.272 298.519 10.336 298.135 10.464C297.772 10.5707 297.441 10.7413 297.143 10.976C296.865 11.1893 296.631 11.4667 296.439 11.808C296.268 12.128 296.183 12.512 296.183 12.96V24H292.087ZM327.245 24.384C326.008 24.384 324.898 24.1813 323.917 23.776C322.957 23.3493 322.136 22.7627 321.453 22.016C320.792 21.248 320.28 20.3307 319.917 19.264C319.554 18.176 319.373 16.96 319.373 15.616C319.373 14.2933 319.544 13.0987 319.885 12.032C320.248 10.9653 320.76 10.0587 321.421 9.312C322.082 8.544 322.893 7.95733 323.853 7.552C324.813 7.12533 325.901 6.912 327.117 6.912C328.418 6.912 329.549 7.136 330.509 7.584C331.469 8.032 332.258 8.64 332.877 9.408C333.496 10.176 333.954 11.072 334.253 12.096C334.573 13.0987 334.733 14.176 334.733 15.328V16.672H323.629V17.088C323.629 18.304 323.97 19.2853 324.653 20.032C325.336 20.7573 326.349 21.12 327.693 21.12C328.717 21.12 329.549 20.9067 330.189 20.48C330.85 20.0533 331.437 19.5093 331.949 18.848L334.157 21.312C333.474 22.272 332.536 23.0293 331.341 23.584C330.168 24.1173 328.802 24.384 327.245 24.384ZM327.181 9.984C326.093 9.984 325.229 10.3467 324.589 11.072C323.949 11.7973 323.629 12.736 323.629 13.888V14.144H330.477V13.856C330.477 12.704 330.189 11.776 329.613 11.072C329.058 10.3467 328.248 9.984 327.181 9.984ZM340.385 4.864C339.531 4.864 338.913 4.672 338.529 4.288C338.166 3.904 337.985 3.41333 337.985 2.816V2.176C337.985 1.57867 338.166 1.088 338.529 0.703999C338.913 0.319998 339.531 0.127998 340.385 0.127998C341.217 0.127998 341.825 0.319998 342.209 0.703999C342.593 1.088 342.785 1.57867 342.785 2.176V2.816C342.785 3.41333 342.593 3.904 342.209 4.288C341.825 4.672 341.217 4.864 340.385 4.864ZM338.337 7.296H342.433V24H338.337V7.296ZM353.805 24.384C352.61 24.384 351.533 24.1813 350.573 23.776C349.634 23.3707 348.823 22.784 348.141 22.016C347.479 21.248 346.967 20.3307 346.605 19.264C346.242 18.176 346.061 16.96 346.061 15.616C346.061 14.272 346.242 13.0667 346.605 12C346.967 10.9333 347.479 10.0267 348.141 9.28C348.823 8.512 349.634 7.92533 350.573 7.52C351.533 7.11467 352.61 6.912 353.805 6.912C354.999 6.912 356.077 7.11467 357.037 7.52C357.997 7.92533 358.807 8.512 359.469 9.28C360.151 10.0267 360.674 10.9333 361.037 12C361.399 13.0667 361.581 14.272 361.581 15.616C361.581 16.96 361.399 18.176 361.037 19.264C360.674 20.3307 360.151 21.248 359.469 22.016C358.807 22.784 357.997 23.3707 357.037 23.776C356.077 24.1813 354.999 24.384 353.805 24.384ZM353.805 21.088C354.893 21.088 355.746 20.7573 356.365 20.096C356.983 19.4347 357.293 18.464 357.293 17.184V14.08C357.293 12.8213 356.983 11.8613 356.365 11.2C355.746 10.5387 354.893 10.208 353.805 10.208C352.738 10.208 351.895 10.5387 351.277 11.2C350.658 11.8613 350.349 12.8213 350.349 14.08V17.184C350.349 18.464 350.658 19.4347 351.277 20.096C351.895 20.7573 352.738 21.088 353.805 21.088ZM12.736 69.216H12.576C12.2773 70.176 11.712 70.944 10.88 71.52C10.048 72.096 9.07733 72.384 7.968 72.384C5.856 72.384 4.23467 71.6267 3.104 70.112C1.99467 68.5973 1.44 66.432 1.44 63.616C1.44 60.8213 1.99467 58.6773 3.104 57.184C4.23467 55.6693 5.856 54.912 7.968 54.912C9.07733 54.912 10.048 55.2 10.88 55.776C11.712 56.3307 12.2773 57.088 12.576 58.048H12.736V48.32H16.832V72H12.736V69.216ZM9.28 68.992C10.2613 68.992 11.0827 68.7573 11.744 68.288C12.4053 67.8187 12.736 67.1467 12.736 66.272V60.96C12.736 60.1493 12.4053 59.4987 11.744 59.008C11.0827 58.5173 10.2613 58.272 9.28 58.272C8.21333 58.272 7.34933 58.6347 6.688 59.36C6.048 60.064 5.728 61.0133 5.728 62.208V65.088C5.728 66.2827 6.048 67.232 6.688 67.936C7.34933 68.64 8.21333 68.992 9.28 68.992ZM28.1795 72.384C26.9848 72.384 25.9075 72.1813 24.9475 71.776C24.0088 71.3707 23.1982 70.784 22.5155 70.016C21.8542 69.248 21.3422 68.3307 20.9795 67.264C20.6168 66.176 20.4355 64.96 20.4355 63.616C20.4355 62.272 20.6168 61.0667 20.9795 60C21.3422 58.9333 21.8542 58.0267 22.5155 57.28C23.1982 56.512 24.0088 55.9253 24.9475 55.52C25.9075 55.1147 26.9848 54.912 28.1795 54.912C29.3742 54.912 30.4515 55.1147 31.4115 55.52C32.3715 55.9253 33.1822 56.512 33.8435 57.28C34.5262 58.0267 35.0488 58.9333 35.4115 60C35.7742 61.0667 35.9555 62.272 35.9555 63.616C35.9555 64.96 35.7742 66.176 35.4115 67.264C35.0488 68.3307 34.5262 69.248 33.8435 70.016C33.1822 70.784 32.3715 71.3707 31.4115 71.776C30.4515 72.1813 29.3742 72.384 28.1795 72.384ZM28.1795 69.088C29.2675 69.088 30.1208 68.7573 30.7395 68.096C31.3582 67.4347 31.6675 66.464 31.6675 65.184V62.08C31.6675 60.8213 31.3582 59.8613 30.7395 59.2C30.1208 58.5387 29.2675 58.208 28.1795 58.208C27.1128 58.208 26.2702 58.5387 25.6515 59.2C25.0328 59.8613 24.7235 60.8213 24.7235 62.08V65.184C24.7235 66.464 25.0328 67.4347 25.6515 68.096C26.2702 68.7573 27.1128 69.088 28.1795 69.088ZM53.7413 72.384C52.5039 72.384 51.4053 72.1813 50.4453 71.776C49.4852 71.3707 48.6746 70.784 48.0133 70.016C47.3733 69.248 46.8826 68.3307 46.5413 67.264C46.1999 66.176 46.0293 64.96 46.0293 63.616C46.0293 62.272 46.1999 61.0667 46.5413 60C46.8826 58.9333 47.3733 58.0267 48.0133 57.28C48.6746 56.512 49.4852 55.9253 50.4453 55.52C51.4053 55.1147 52.5039 54.912 53.7413 54.912C55.4266 54.912 56.8133 55.2853 57.9013 56.032C59.0106 56.7787 59.8106 57.8133 60.3013 59.136L56.9413 60.64C56.7493 59.936 56.3866 59.36 55.8533 58.912C55.3413 58.4427 54.6373 58.208 53.7413 58.208C52.5893 58.208 51.7253 58.5707 51.1493 59.296C50.5946 60.0213 50.3173 60.9707 50.3173 62.144V65.184C50.3173 66.3573 50.5946 67.3067 51.1493 68.032C51.7253 68.736 52.5893 69.088 53.7413 69.088C54.7226 69.088 55.4799 68.8427 56.0133 68.352C56.5466 67.84 56.9626 67.2107 57.2613 66.464L60.3973 67.968C59.8426 69.44 58.9999 70.5493 57.8693 71.296C56.7386 72.0213 55.3626 72.384 53.7413 72.384ZM70.0233 72.384C68.8286 72.384 67.7513 72.1813 66.7913 71.776C65.8526 71.3707 65.0419 70.784 64.3593 70.016C63.6979 69.248 63.1859 68.3307 62.8233 67.264C62.4606 66.176 62.2793 64.96 62.2793 63.616C62.2793 62.272 62.4606 61.0667 62.8233 60C63.1859 58.9333 63.6979 58.0267 64.3593 57.28C65.0419 56.512 65.8526 55.9253 66.7913 55.52C67.7513 55.1147 68.8286 54.912 70.0233 54.912C71.2179 54.912 72.2953 55.1147 73.2553 55.52C74.2153 55.9253 75.0259 56.512 75.6873 57.28C76.3699 58.0267 76.8926 58.9333 77.2553 60C77.6179 61.0667 77.7993 62.272 77.7993 63.616C77.7993 64.96 77.6179 66.176 77.2553 67.264C76.8926 68.3307 76.3699 69.248 75.6873 70.016C75.0259 70.784 74.2153 71.3707 73.2553 71.776C72.2953 72.1813 71.2179 72.384 70.0233 72.384ZM70.0233 69.088C71.1113 69.088 71.9646 68.7573 72.5833 68.096C73.2019 67.4347 73.5113 66.464 73.5113 65.184V62.08C73.5113 60.8213 73.2019 59.8613 72.5833 59.2C71.9646 58.5387 71.1113 58.208 70.0233 58.208C68.9566 58.208 68.1139 58.5387 67.4953 59.2C66.8766 59.8613 66.5673 60.8213 66.5673 62.08V65.184C66.5673 66.464 66.8766 67.4347 67.4953 68.096C68.1139 68.7573 68.9566 69.088 70.0233 69.088ZM81.4305 72V55.296H85.5265V58.08H85.6865C86.0278 57.184 86.5612 56.4373 87.2865 55.84C88.0332 55.2213 89.0572 54.912 90.3585 54.912C92.0865 54.912 93.4092 55.4773 94.3265 56.608C95.2438 57.7387 95.7025 59.3493 95.7025 61.44V72H91.6065V61.856C91.6065 60.6613 91.3932 59.7653 90.9665 59.168C90.5398 58.5707 89.8358 58.272 88.8545 58.272C88.4278 58.272 88.0118 58.336 87.6065 58.464C87.2225 58.5707 86.8705 58.7413 86.5505 58.976C86.2518 59.1893 86.0065 59.4667 85.8145 59.808C85.6225 60.128 85.5265 60.512 85.5265 60.96V72H81.4305ZM100.243 48.32H104.339V58.08H104.499C104.84 57.184 105.374 56.4373 106.099 55.84C106.846 55.2213 107.87 54.912 109.171 54.912C110.899 54.912 112.222 55.4773 113.139 56.608C114.056 57.7387 114.515 59.3493 114.515 61.44V72H110.419V61.856C110.419 60.6613 110.206 59.7653 109.779 59.168C109.352 58.5707 108.648 58.272 107.667 58.272C107.24 58.272 106.824 58.336 106.419 58.464C106.035 58.5707 105.683 58.7413 105.363 58.976C105.064 59.1893 104.819 59.4667 104.627 59.808C104.435 60.128 104.339 60.512 104.339 60.96V72H100.243V48.32ZM125.808 72.384C124.57 72.384 123.461 72.1813 122.48 71.776C121.52 71.3493 120.698 70.7627 120.016 70.016C119.354 69.248 118.842 68.3307 118.48 67.264C118.117 66.176 117.936 64.96 117.936 63.616C117.936 62.2933 118.106 61.0987 118.448 60.032C118.81 58.9653 119.322 58.0587 119.984 57.312C120.645 56.544 121.456 55.9573 122.416 55.552C123.376 55.1253 124.464 54.912 125.68 54.912C126.981 54.912 128.112 55.136 129.072 55.584C130.032 56.032 130.821 56.64 131.44 57.408C132.058 58.176 132.517 59.072 132.816 60.096C133.136 61.0987 133.296 62.176 133.296 63.328V64.672H122.192V65.088C122.192 66.304 122.533 67.2853 123.216 68.032C123.898 68.7573 124.912 69.12 126.256 69.12C127.28 69.12 128.112 68.9067 128.752 68.48C129.413 68.0533 130 67.5093 130.512 66.848L132.72 69.312C132.037 70.272 131.098 71.0293 129.904 71.584C128.73 72.1173 127.365 72.384 125.808 72.384ZM125.744 57.984C124.656 57.984 123.792 58.3467 123.152 59.072C122.512 59.7973 122.192 60.736 122.192 61.888V62.144H129.04V61.856C129.04 60.704 128.752 59.776 128.176 59.072C127.621 58.3467 126.81 57.984 125.744 57.984ZM143.491 72.384C142.254 72.384 141.155 72.1813 140.195 71.776C139.235 71.3707 138.425 70.784 137.763 70.016C137.123 69.248 136.633 68.3307 136.291 67.264C135.95 66.176 135.779 64.96 135.779 63.616C135.779 62.272 135.95 61.0667 136.291 60C136.633 58.9333 137.123 58.0267 137.763 57.28C138.425 56.512 139.235 55.9253 140.195 55.52C141.155 55.1147 142.254 54.912 143.491 54.912C145.177 54.912 146.563 55.2853 147.651 56.032C148.761 56.7787 149.561 57.8133 150.051 59.136L146.691 60.64C146.499 59.936 146.137 59.36 145.603 58.912C145.091 58.4427 144.387 58.208 143.491 58.208C142.339 58.208 141.475 58.5707 140.899 59.296C140.345 60.0213 140.067 60.9707 140.067 62.144V65.184C140.067 66.3573 140.345 67.3067 140.899 68.032C141.475 68.736 142.339 69.088 143.491 69.088C144.473 69.088 145.23 68.8427 145.763 68.352C146.297 67.84 146.713 67.2107 147.011 66.464L150.147 67.968C149.593 69.44 148.75 70.5493 147.619 71.296C146.489 72.0213 145.113 72.384 143.491 72.384ZM155.354 52.864C154.5 52.864 153.882 52.672 153.498 52.288C153.135 51.904 152.954 51.4133 152.954 50.816V50.176C152.954 49.5787 153.135 49.088 153.498 48.704C153.882 48.32 154.5 48.128 155.354 48.128C156.186 48.128 156.794 48.32 157.178 48.704C157.562 49.088 157.754 49.5787 157.754 50.176V50.816C157.754 51.4133 157.562 51.904 157.178 52.288C156.794 52.672 156.186 52.864 155.354 52.864ZM153.306 55.296H157.402V72H153.306V55.296ZM162.149 72V55.296H166.245V58.08H166.405C166.725 57.2053 167.237 56.4587 167.941 55.84C168.645 55.2213 169.627 54.912 170.885 54.912C172.037 54.912 173.029 55.1893 173.861 55.744C174.693 56.2987 175.312 57.1413 175.717 58.272H175.781C176.08 57.3333 176.667 56.544 177.541 55.904C178.437 55.2427 179.557 54.912 180.901 54.912C182.544 54.912 183.803 55.4773 184.677 56.608C185.573 57.7387 186.021 59.3493 186.021 61.44V72H181.925V61.856C181.925 59.4667 181.029 58.272 179.237 58.272C178.832 58.272 178.437 58.336 178.053 58.464C177.691 58.5707 177.36 58.7413 177.061 58.976C176.784 59.1893 176.56 59.4667 176.389 59.808C176.219 60.128 176.133 60.512 176.133 60.96V72H172.037V61.856C172.037 59.4667 171.141 58.272 169.349 58.272C168.965 58.272 168.581 58.336 168.197 58.464C167.835 58.5707 167.504 58.7413 167.205 58.976C166.928 59.1893 166.693 59.4667 166.501 59.808C166.331 60.128 166.245 60.512 166.245 60.96V72H162.149ZM197.308 72.384C196.07 72.384 194.961 72.1813 193.98 71.776C193.02 71.3493 192.198 70.7627 191.516 70.016C190.854 69.248 190.342 68.3307 189.98 67.264C189.617 66.176 189.436 64.96 189.436 63.616C189.436 62.2933 189.606 61.0987 189.948 60.032C190.31 58.9653 190.822 58.0587 191.484 57.312C192.145 56.544 192.956 55.9573 193.916 55.552C194.876 55.1253 195.964 54.912 197.18 54.912C198.481 54.912 199.612 55.136 200.572 55.584C201.532 56.032 202.321 56.64 202.94 57.408C203.558 58.176 204.017 59.072 204.316 60.096C204.636 61.0987 204.796 62.176 204.796 63.328V64.672H193.692V65.088C193.692 66.304 194.033 67.2853 194.716 68.032C195.398 68.7573 196.412 69.12 197.756 69.12C198.78 69.12 199.612 68.9067 200.252 68.48C200.913 68.0533 201.5 67.5093 202.012 66.848L204.22 69.312C203.537 70.272 202.598 71.0293 201.404 71.584C200.23 72.1173 198.865 72.384 197.308 72.384ZM197.244 57.984C196.156 57.984 195.292 58.3467 194.652 59.072C194.012 59.7973 193.692 60.736 193.692 61.888V62.144H200.54V61.856C200.54 60.704 200.252 59.776 199.676 59.072C199.121 58.3467 198.31 57.984 197.244 57.984ZM208.399 72V55.296H212.495V58.08H212.655C212.997 57.184 213.53 56.4373 214.255 55.84C215.002 55.2213 216.026 54.912 217.327 54.912C219.055 54.912 220.378 55.4773 221.295 56.608C222.213 57.7387 222.671 59.3493 222.671 61.44V72H218.575V61.856C218.575 60.6613 218.362 59.7653 217.935 59.168C217.509 58.5707 216.805 58.272 215.823 58.272C215.397 58.272 214.981 58.336 214.575 58.464C214.191 58.5707 213.839 58.7413 213.519 58.976C213.221 59.1893 212.975 59.4667 212.783 59.808C212.591 60.128 212.495 60.512 212.495 60.96V72H208.399ZM232.428 72C231.02 72 229.942 71.6373 229.196 70.912C228.47 70.1653 228.108 69.1093 228.108 67.744V58.56H225.644V55.296H226.924C227.542 55.296 227.958 55.1573 228.172 54.88C228.406 54.5813 228.524 54.144 228.524 53.568V50.72H232.204V55.296H235.628V58.56H232.204V68.736H235.372V72H232.428ZM245.68 72.384C244.485 72.384 243.408 72.1813 242.448 71.776C241.509 71.3707 240.698 70.784 240.016 70.016C239.354 69.248 238.842 68.3307 238.48 67.264C238.117 66.176 237.936 64.96 237.936 63.616C237.936 62.272 238.117 61.0667 238.48 60C238.842 58.9333 239.354 58.0267 240.016 57.28C240.698 56.512 241.509 55.9253 242.448 55.52C243.408 55.1147 244.485 54.912 245.68 54.912C246.874 54.912 247.952 55.1147 248.912 55.52C249.872 55.9253 250.682 56.512 251.344 57.28C252.026 58.0267 252.549 58.9333 252.912 60C253.274 61.0667 253.456 62.272 253.456 63.616C253.456 64.96 253.274 66.176 252.912 67.264C252.549 68.3307 252.026 69.248 251.344 70.016C250.682 70.784 249.872 71.3707 248.912 71.776C247.952 72.1813 246.874 72.384 245.68 72.384ZM245.68 69.088C246.768 69.088 247.621 68.7573 248.24 68.096C248.858 67.4347 249.168 66.464 249.168 65.184V62.08C249.168 60.8213 248.858 59.8613 248.24 59.2C247.621 58.5387 246.768 58.208 245.68 58.208C244.613 58.208 243.77 58.5387 243.152 59.2C242.533 59.8613 242.224 60.8213 242.224 62.08V65.184C242.224 66.464 242.533 67.4347 243.152 68.096C243.77 68.7573 244.613 69.088 245.68 69.088Z" fill="#212529"/>
</svg>
