<svg width="157" height="25" viewBox="0 0 157 25" fill="none" xmlns="http://www.w3.org/2000/svg">
<path d="M10.392 24.384C8.92 24.384 7.58667 24.1387 6.392 23.648C5.19733 23.1573 4.17333 22.4213 3.32 21.44C2.488 20.4587 1.83733 19.2533 1.368 17.824C0.898667 16.3947 0.664 14.7307 0.664 12.832C0.664 10.9547 0.898667 9.30133 1.368 7.872C1.83733 6.42133 2.488 5.20533 3.32 4.224C4.17333 3.24267 5.19733 2.50667 6.392 2.016C7.58667 1.52533 8.92 1.28 10.392 1.28C11.864 1.28 13.1973 1.52533 14.392 2.016C15.5867 2.50667 16.6107 3.24267 17.464 4.224C18.3173 5.20533 18.968 6.42133 19.416 7.872C19.8853 9.30133 20.12 10.9547 20.12 12.832C20.12 14.7307 19.8853 16.3947 19.416 17.824C18.968 19.2533 18.3173 20.4587 17.464 21.44C16.6107 22.4213 15.5867 23.1573 14.392 23.648C13.1973 24.1387 11.864 24.384 10.392 24.384ZM10.392 20.64C11.992 20.64 13.2613 20.1067 14.2 19.04C15.16 17.9733 15.64 16.48 15.64 14.56V11.104C15.64 9.184 15.16 7.69067 14.2 6.624C13.2613 5.55733 11.992 5.024 10.392 5.024C8.792 5.024 7.512 5.55733 6.552 6.624C5.61333 7.69067 5.144 9.184 5.144 11.104V14.56C5.144 16.48 5.61333 17.9733 6.552 19.04C7.512 20.1067 8.792 20.64 10.392 20.64ZM30.7733 24.384C29.5786 24.384 28.5013 24.1813 27.5413 23.776C26.6026 23.3707 25.7919 22.784 25.1093 22.016C24.4479 21.248 23.9359 20.3307 23.5733 19.264C23.2106 18.176 23.0293 16.96 23.0293 15.616C23.0293 14.272 23.2106 13.0667 23.5733 12C23.9359 10.9333 24.4479 10.0267 25.1093 9.28C25.7919 8.512 26.6026 7.92533 27.5413 7.52C28.5013 7.11467 29.5786 6.912 30.7733 6.912C31.9679 6.912 33.0453 7.11467 34.0053 7.52C34.9653 7.92533 35.7759 8.512 36.4373 9.28C37.1199 10.0267 37.6426 10.9333 38.0053 12C38.3679 13.0667 38.5493 14.272 38.5493 15.616C38.5493 16.96 38.3679 18.176 38.0053 19.264C37.6426 20.3307 37.1199 21.248 36.4373 22.016C35.7759 22.784 34.9653 23.3707 34.0053 23.776C33.0453 24.1813 31.9679 24.384 30.7733 24.384ZM30.7733 21.088C31.8613 21.088 32.7146 20.7573 33.3333 20.096C33.9519 19.4347 34.2613 18.464 34.2613 17.184V14.08C34.2613 12.8213 33.9519 11.8613 33.3333 11.2C32.7146 10.5387 31.8613 10.208 30.7733 10.208C29.7066 10.208 28.8639 10.5387 28.2453 11.2C27.6266 11.8613 27.3173 12.8213 27.3173 14.08V17.184C27.3173 18.464 27.6266 19.4347 28.2453 20.096C28.8639 20.7573 29.7066 21.088 30.7733 21.088ZM48.8045 24.384C47.6098 24.384 46.5325 24.1813 45.5725 23.776C44.6338 23.3707 43.8232 22.784 43.1405 22.016C42.4792 21.248 41.9672 20.3307 41.6045 19.264C41.2418 18.176 41.0605 16.96 41.0605 15.616C41.0605 14.272 41.2418 13.0667 41.6045 12C41.9672 10.9333 42.4792 10.0267 43.1405 9.28C43.8232 8.512 44.6338 7.92533 45.5725 7.52C46.5325 7.11467 47.6098 6.912 48.8045 6.912C49.9992 6.912 51.0765 7.11467 52.0365 7.52C52.9965 7.92533 53.8072 8.512 54.4685 9.28C55.1512 10.0267 55.6738 10.9333 56.0365 12C56.3992 13.0667 56.5805 14.272 56.5805 15.616C56.5805 16.96 56.3992 18.176 56.0365 19.264C55.6738 20.3307 55.1512 21.248 54.4685 22.016C53.8072 22.784 52.9965 23.3707 52.0365 23.776C51.0765 24.1813 49.9992 24.384 48.8045 24.384ZM48.8045 21.088C49.8925 21.088 50.7458 20.7573 51.3645 20.096C51.9832 19.4347 52.2925 18.464 52.2925 17.184V14.08C52.2925 12.8213 51.9832 11.8613 51.3645 11.2C50.7458 10.5387 49.8925 10.208 48.8045 10.208C47.7378 10.208 46.8952 10.5387 46.2765 11.2C45.6578 11.8613 45.3485 12.8213 45.3485 14.08V17.184C45.3485 18.464 45.6578 19.4347 46.2765 20.096C46.8952 20.7573 47.7378 21.088 48.8045 21.088ZM66.8358 24.384C65.6411 24.384 64.5638 24.1813 63.6038 23.776C62.6651 23.3707 61.8544 22.784 61.1718 22.016C60.5104 21.248 59.9984 20.3307 59.6358 19.264C59.2731 18.176 59.0918 16.96 59.0918 15.616C59.0918 14.272 59.2731 13.0667 59.6358 12C59.9984 10.9333 60.5104 10.0267 61.1718 9.28C61.8544 8.512 62.6651 7.92533 63.6038 7.52C64.5638 7.11467 65.6411 6.912 66.8358 6.912C68.0304 6.912 69.1078 7.11467 70.0678 7.52C71.0278 7.92533 71.8384 8.512 72.4998 9.28C73.1824 10.0267 73.7051 10.9333 74.0678 12C74.4304 13.0667 74.6118 14.272 74.6118 15.616C74.6118 16.96 74.4304 18.176 74.0678 19.264C73.7051 20.3307 73.1824 21.248 72.4998 22.016C71.8384 22.784 71.0278 23.3707 70.0678 23.776C69.1078 24.1813 68.0304 24.384 66.8358 24.384ZM66.8358 21.088C67.9238 21.088 68.7771 20.7573 69.3958 20.096C70.0144 19.4347 70.3238 18.464 70.3238 17.184V14.08C70.3238 12.8213 70.0144 11.8613 69.3958 11.2C68.7771 10.5387 67.9238 10.208 66.8358 10.208C65.7691 10.208 64.9264 10.5387 64.3078 11.2C63.6891 11.8613 63.3798 12.8213 63.3798 14.08V17.184C63.3798 18.464 63.6891 19.4347 64.3078 20.096C64.9264 20.7573 65.7691 21.088 66.8358 21.088ZM84.867 24.384C83.6723 24.384 82.595 24.1813 81.635 23.776C80.6963 23.3707 79.8857 22.784 79.203 22.016C78.5417 21.248 78.0297 20.3307 77.667 19.264C77.3043 18.176 77.123 16.96 77.123 15.616C77.123 14.272 77.3043 13.0667 77.667 12C78.0297 10.9333 78.5417 10.0267 79.203 9.28C79.8857 8.512 80.6963 7.92533 81.635 7.52C82.595 7.11467 83.6723 6.912 84.867 6.912C86.0617 6.912 87.139 7.11467 88.099 7.52C89.059 7.92533 89.8697 8.512 90.531 9.28C91.2137 10.0267 91.7363 10.9333 92.099 12C92.4617 13.0667 92.643 14.272 92.643 15.616C92.643 16.96 92.4617 18.176 92.099 19.264C91.7363 20.3307 91.2137 21.248 90.531 22.016C89.8697 22.784 89.059 23.3707 88.099 23.776C87.139 24.1813 86.0617 24.384 84.867 24.384ZM84.867 21.088C85.955 21.088 86.8083 20.7573 87.427 20.096C88.0457 19.4347 88.355 18.464 88.355 17.184V14.08C88.355 12.8213 88.0457 11.8613 87.427 11.2C86.8083 10.5387 85.955 10.208 84.867 10.208C83.8003 10.208 82.9577 10.5387 82.339 11.2C81.7203 11.8613 81.411 12.8213 81.411 14.08V17.184C81.411 18.464 81.7203 19.4347 82.339 20.096C82.9577 20.7573 83.8003 21.088 84.867 21.088ZM102.898 24.384C101.704 24.384 100.626 24.1813 99.6663 23.776C98.7276 23.3707 97.9169 22.784 97.2343 22.016C96.5729 21.248 96.0609 20.3307 95.6983 19.264C95.3356 18.176 95.1543 16.96 95.1543 15.616C95.1543 14.272 95.3356 13.0667 95.6983 12C96.0609 10.9333 96.5729 10.0267 97.2343 9.28C97.9169 8.512 98.7276 7.92533 99.6663 7.52C100.626 7.11467 101.704 6.912 102.898 6.912C104.093 6.912 105.17 7.11467 106.13 7.52C107.09 7.92533 107.901 8.512 108.562 9.28C109.245 10.0267 109.768 10.9333 110.13 12C110.493 13.0667 110.674 14.272 110.674 15.616C110.674 16.96 110.493 18.176 110.13 19.264C109.768 20.3307 109.245 21.248 108.562 22.016C107.901 22.784 107.09 23.3707 106.13 23.776C105.17 24.1813 104.093 24.384 102.898 24.384ZM102.898 21.088C103.986 21.088 104.84 20.7573 105.458 20.096C106.077 19.4347 106.386 18.464 106.386 17.184V14.08C106.386 12.8213 106.077 11.8613 105.458 11.2C104.84 10.5387 103.986 10.208 102.898 10.208C101.832 10.208 100.989 10.5387 100.37 11.2C99.7516 11.8613 99.4423 12.8213 99.4423 14.08V17.184C99.4423 18.464 99.7516 19.4347 100.37 20.096C100.989 20.7573 101.832 21.088 102.898 21.088ZM114.306 0.32H118.402V10.048H118.53C118.828 9.088 119.394 8.33067 120.226 7.776C121.058 7.2 122.028 6.912 123.138 6.912C125.271 6.912 126.892 7.66933 128.002 9.184C129.132 10.6773 129.698 12.8213 129.698 15.616C129.698 18.432 129.132 20.5973 128.002 22.112C126.892 23.6267 125.271 24.384 123.138 24.384C122.028 24.384 121.058 24.096 120.226 23.52C119.415 22.944 118.85 22.176 118.53 21.216H118.402V24H114.306V0.32ZM121.826 20.992C122.892 20.992 123.756 20.64 124.418 19.936C125.079 19.232 125.41 18.2827 125.41 17.088V14.208C125.41 13.0133 125.079 12.064 124.418 11.36C123.756 10.6347 122.892 10.272 121.826 10.272C120.844 10.272 120.023 10.5173 119.362 11.008C118.722 11.4987 118.402 12.1493 118.402 12.96V18.272C118.402 19.1467 118.722 19.8187 119.362 20.288C120.023 20.7573 120.844 20.992 121.826 20.992ZM145.781 24C144.885 24 144.17 23.744 143.637 23.232C143.125 22.6987 142.805 21.9947 142.677 21.12H142.485C142.208 22.208 141.642 23.0293 140.789 23.584C139.936 24.1173 138.88 24.384 137.621 24.384C135.914 24.384 134.602 23.936 133.685 23.04C132.768 22.144 132.309 20.9493 132.309 19.456C132.309 17.728 132.928 16.448 134.165 15.616C135.402 14.7627 137.162 14.336 139.445 14.336H142.293V13.12C142.293 12.1813 142.048 11.456 141.557 10.944C141.066 10.432 140.277 10.176 139.189 10.176C138.229 10.176 137.45 10.3893 136.853 10.816C136.277 11.2213 135.786 11.712 135.381 12.288L132.949 10.112C133.568 9.152 134.389 8.384 135.413 7.808C136.437 7.21067 137.792 6.912 139.477 6.912C141.738 6.912 143.456 7.424 144.629 8.448C145.802 9.472 146.389 10.944 146.389 12.864V20.736H148.053V24H145.781ZM138.997 21.408C139.914 21.408 140.693 21.2053 141.333 20.8C141.973 20.3947 142.293 19.7973 142.293 19.008V16.8H139.669C137.536 16.8 136.469 17.4827 136.469 18.848V19.392C136.469 20.0747 136.682 20.5867 137.109 20.928C137.557 21.248 138.186 21.408 138.997 21.408ZM153.096 17.28L151.784 7.968V1.664H156.136V7.968L154.888 17.28H153.096ZM153.96 24.384C153.043 24.384 152.381 24.1707 151.976 23.744C151.571 23.3173 151.368 22.7733 151.368 22.112V21.472C151.368 20.8107 151.571 20.2667 151.976 19.84C152.381 19.4133 153.043 19.2 153.96 19.2C154.856 19.2 155.507 19.4133 155.912 19.84C156.317 20.2667 156.52 20.8107 156.52 21.472V22.112C156.52 22.7733 156.317 23.3173 155.912 23.744C155.507 24.1707 154.856 24.384 153.96 24.384Z" fill="#364FC7"/>
</svg>
